<?xml version="1.0" encoding="utf-8"?>
<!-- Generator: Adobe Illustrator 20.1.0, SVG Export Plug-In . SVG Version: 6.00 Build 0)  -->
<svg version="1.1" id="Layer_1" xmlns="http://www.w3.org/2000/svg" xmlns:xlink="http://www.w3.org/1999/xlink" x="0px" y="0px"
	 viewBox="0 0 72 72" style="enable-background:new 0 0 72 72;" xml:space="preserve">
<style type="text/css">
	.st0{fill:#EBC534;}
	.st1{fill:none;stroke:#EBC534;stroke-width:2;stroke-miterlimit:10;}
</style>
<rect x="23.1" y="21.7" transform="matrix(0.7071 -0.7071 0.7071 0.7071 -8.9425 24.0086)" class="st0" width="2.8" height="2.2"/>
<g>
	<polygon class="st1" points="64.9,60.8 17.4,60.8 17.4,12.3 	"/>
	<polygon class="st1" points="45,54.5 23.9,54.5 23.9,33 	"/>
	
		<rect x="28.2" y="26.8" transform="matrix(0.7071 -0.7071 0.7071 0.7071 -11.0653 29.1336)" class="st0" width="2.8" height="2.2"/>
	
		<rect x="33.5" y="32.1" transform="matrix(0.7071 -0.7071 0.7071 0.7071 -13.2486 34.4045)" class="st0" width="2.8" height="2.2"/>
	
		<rect x="38.7" y="37.3" transform="matrix(0.7071 -0.7071 0.7071 0.7071 -15.3952 39.5868)" class="st0" width="2.8" height="2.2"/>
	
		<rect x="43.9" y="42.4" transform="matrix(0.7071 -0.7071 0.7071 0.7071 -17.5375 44.7587)" class="st0" width="2.8" height="2.2"/>
	<rect x="49.3" y="47.8" transform="matrix(0.7071 -0.7071 0.7071 0.7071 -19.7768 50.165)" class="st0" width="2.8" height="2.2"/>
	
		<rect x="54.4" y="52.9" transform="matrix(0.7071 -0.7071 0.7071 0.7071 -21.8867 55.2587)" class="st0" width="2.8" height="2.2"/>
</g>
</svg>
