<?xml version="1.0" encoding="utf-8"?>
<!-- Generator: Adobe Illustrator 20.1.0, SVG Export Plug-In . SVG Version: 6.00 Build 0)  -->
<svg version="1.1" id="Layer_1" xmlns="http://www.w3.org/2000/svg" xmlns:xlink="http://www.w3.org/1999/xlink" x="0px" y="0px"
	 viewBox="0 0 72 72" style="enable-background:new 0 0 72 72;" xml:space="preserve">
<style type="text/css">
	.st0{fill:#D9382B;}
</style>
<g>
	<g>
		<path class="st0" d="M50.3,17c0.9,0,1.7,1,1.7,1.9v4.3V25h1.9h2.4c0.9,0,1.7,0.9,1.7,1.8v24.8c0,0.9-0.8,1.4-1.7,1.4H20.7
			c-0.9,0-1.7-0.5-1.7-1.4v-4.3V45h-1.9h-2.4c-0.9,0-1.7-0.4-1.7-1.3V18.9c0-0.9,0.8-1.9,1.7-1.9H50 M50.3,15H14.7
			c-2,0-3.7,1.9-3.7,3.9v24.8c0,2,1.7,3.3,3.7,3.3H17v4.6c0,2,1.7,3.4,3.7,3.4h35.6c2,0,3.7-1.4,3.7-3.4V26.8c0-2-1.7-3.8-3.7-3.8
			H54v-4.1C54,16.9,52.3,15,50.3,15L50.3,15z"/>
	</g>
	<g>
		<path class="st0" d="M50.3,17c0.9,0,1.6,0.7,1.6,1.6v24.8c0,0.9-0.7,1.6-1.6,1.6H14.7c-0.9,0-1.6-0.7-1.6-1.6V18.6
			c0-0.9,0.7-1.6,1.6-1.6H50.3 M50.3,15H14.7c-2,0-3.6,1.6-3.6,3.6v24.8c0,2,1.6,3.6,3.6,3.6h35.6c2,0,3.6-1.6,3.6-3.6V18.6
			C53.9,16.6,52.3,15,50.3,15L50.3,15z"/>
	</g>
</g>
<rect x="11.9" y="23.1" class="st0" width="42.8" height="1.9"/>
<rect x="53.4" y="31.5" class="st0" width="5.7" height="2"/>
<circle class="st0" cx="17.9" cy="19.8" r="1.3"/>
<circle class="st0" cx="21.9" cy="19.8" r="1.3"/>
<circle class="st0" cx="26" cy="19.8" r="1.3"/>
</svg>
