<?xml version="1.0" encoding="utf-8"?>
<!-- Generator: Adobe Illustrator 20.1.0, SVG Export Plug-In . SVG Version: 6.00 Build 0)  -->
<svg version="1.1" id="Layer_1" xmlns="http://www.w3.org/2000/svg" xmlns:xlink="http://www.w3.org/1999/xlink" x="0px" y="0px"
	 viewBox="0 0 72 72" style="enable-background:new 0 0 72 72;" xml:space="preserve">
<style type="text/css">
	.st0{fill:#9FCC36;}
	.st1{fill:#FFFFFF;}
</style>
<g>
	<path class="st0" d="M59.8,30.9c-0.2,1.5-0.6,2.6-1.8,2.8c-0.6-3.6-2.8-9.3-10.6-13.3c-5-2.7-13.9-1.9-16.4-1.6
		c-1.3-2.1-4.1-4.9-7.9-3.6l-1.3,0.4l0.8,1.1c0.9,1.2,2.1,3.1,2.6,4.2c-1.9,1.6-8,7.1-8.5,13.1H11v9h5.6c1.3,1.5,6.4,7.1,11.4,9.1
		V58h2v-5.3c2,0.4,3.9,0.7,6.2,0.7c2.7,0,5.8-0.3,7.8-1V58h2v-6h-0.1c2-1,3.7-1.6,5.1-2.7c5.5-4.5,7-9.2,7.1-12.5
		c0.2-0.1,0.5-0.2,0.9-0.4c2.2-1.1,2.8-3.4,2.7-5.1C61.6,29.6,60.1,29.3,59.8,30.9z"/>
	<g>
		<path class="st1" d="M49.8,47.7c-4.5,3.7-14,4.5-20,3c-5.5-1.4-11.9-9.2-11.9-9.3L17.5,41H13v-5h5.6l0-1
			c-0.1-6.4,8.2-12.9,8.3-12.9l0.5-0.4l-0.1-0.6c-0.2-1.1-1.3-2.9-2.2-4.2c2.7,0.1,4.3,3.3,4.4,3.5l0.3,0.6l0.7-0.1
			c0.1,0,10.6-1.4,15.9,1.3c8.8,4.6,9.8,11.2,9.8,13.8C56.2,38.9,55.1,43.3,49.8,47.7z"/>
	</g>
	<circle class="st0" cx="24.3" cy="32.6" r="1.7"/>
	<path class="st0" d="M41.7,24.1c-1.2-0.3-2.4-0.5-3.6-0.5c-0.8,0-1.6-0.1-2.3,0.1c-0.2,0.1-0.5,0.1-0.7,0.2
		c-0.3,0.2-0.7,0.5-0.5,0.9c0.1,0.3,0.4,0.4,0.7,0.4c1.7,0.3,3.4,0.4,5.1,0.7c1.7,0.3,3.4,0.8,5,1.6c1,0.5,1.7-0.5,1-1.2
		C45.3,25.1,43.4,24.5,41.7,24.1z"/>
</g>
</svg>
