<svg id="Layer_1" data-name="Layer 1" xmlns="http://www.w3.org/2000/svg" viewBox="0 0 58.89 50.26"><title>bars-solid</title><path d="M327.66,53h54.68a2.09,2.09,0,0,0,2.11-2V45.82a2.09,2.09,0,0,0-2.11-2H327.66a2.09,2.09,0,0,0-2.11,2V51A2.09,2.09,0,0,0,327.66,53Zm0,20.51h54.68a2.08,2.08,0,0,0,2.11-2.05V66.33a2.09,2.09,0,0,0-2.11-2H327.66a2.09,2.09,0,0,0-2.11,2v5.13A2.08,2.08,0,0,0,327.66,73.51Zm0,20.52h54.68a2.09,2.09,0,0,0,2.11-2V86.85a2.09,2.09,0,0,0-2.11-2H327.66a2.09,2.09,0,0,0-2.11,2V92A2.09,2.09,0,0,0,327.66,94Z" transform="translate(-325.55 -43.77)"/></svg>