<?xml version="1.0" encoding="utf-8"?>
<!-- Generator: Adobe Illustrator 20.1.0, SVG Export Plug-In . SVG Version: 6.00 Build 0)  -->
<svg version="1.1" id="Layer_1" xmlns="http://www.w3.org/2000/svg" xmlns:xlink="http://www.w3.org/1999/xlink" x="0px" y="0px"
	 viewBox="0 0 72 72" style="enable-background:new 0 0 72 72;" xml:space="preserve">
<style type="text/css">
	.st0{fill:#00A3D6;}
</style>
<g>
	<path class="st0" d="M55.9,41c0-3.9-1.9-9.7-6.1-14.1l2.2-2.2l0.5,0.6c0.5,0.5,1.2,0.5,1.7,0c0.5-0.5,0.5-1.2,0-1.7l-2.5-2.5
		c-0.5-0.5-1.2-0.5-1.7,0c-0.5,0.5-0.5,1.2,0,1.7l0.5,0.5l-2.2,2.2c-3.3-2.8-7.7-4.8-13.5-4.8L34.7,16h1.1c0.6,0,1-0.4,1-1
		c0-0.6-0.4-1-1-1h-4c-0.6,0-1,0.4-1,1c0,0.6,0.4,1,1,1h1l0.5,27L56,43L55.9,41L55.9,41z M34.9,22.7c13,0,18.9,12.3,18.9,18.3
		l-18.6,0L34.9,22.7z"/>
	<g>
		<path class="st0" d="M40.8,35.3l-0.2-0.2c-0.3-0.3-0.3-0.9,0-1.2l3-3c0.3-0.3,0.9-0.3,1.2,0L45,31c0.3,0.3,0.3,0.9,0,1.2l-3,3
			C41.7,35.6,41.1,35.6,40.8,35.3z"/>
	</g>
	<g>
		<path class="st0" d="M33.9,58.1h-0.3c-0.5,0-0.9-0.4-0.9-0.9v-4.3c0-0.5,0.4-0.9,0.9-0.9h0.3c0.5,0,0.9,0.4,0.9,0.9v4.3
			C34.8,57.7,34.4,58.1,33.9,58.1z"/>
	</g>
	<g>
		<path class="st0" d="M45,53.1l-0.2,0.2c-0.3,0.3-0.9,0.3-1.2,0l-3-3c-0.3-0.3-0.3-0.9,0-1.2l0.2-0.2c0.3-0.3,0.9-0.3,1.2,0l3,3
			C45.4,52.2,45.4,52.7,45,53.1z"/>
	</g>
	<g>
		<path class="st0" d="M22.8,53.3l-0.2-0.2c-0.3-0.3-0.3-0.9,0-1.2l3-3c0.3-0.3,0.9-0.3,1.2,0L27,49c0.3,0.3,0.3,0.9,0,1.2l-3,3
			C23.7,53.6,23.1,53.6,22.8,53.3z"/>
	</g>
	<g>
		<path class="st0" d="M23.9,43.1h-4.3c-0.5,0-0.9-0.4-0.9-0.9v-0.3c0-0.5,0.4-0.9,0.9-0.9h4.3c0.5,0,0.9,0.4,0.9,0.9v0.3
			C24.8,42.7,24.4,43.1,23.9,43.1z"/>
	</g>
	<g>
		<path class="st0" d="M25.6,35.3l-3-3c-0.3-0.3-0.3-0.9,0-1.2l0.2-0.2c0.3-0.3,0.9-0.3,1.2,0l3,3c0.3,0.3,0.3,0.9,0,1.2l-0.2,0.2
			C26.5,35.6,26,35.6,25.6,35.3z"/>
	</g>
</g>
</svg>
