<?xml version="1.0" encoding="utf-8"?>
<!-- Generator: Adobe Illustrator 20.1.0, SVG Export Plug-In . SVG Version: 6.00 Build 0)  -->
<svg version="1.1" id="Layer_1" xmlns="http://www.w3.org/2000/svg" xmlns:xlink="http://www.w3.org/1999/xlink" x="0px" y="0px"
	 viewBox="0 0 72 72" style="enable-background:new 0 0 72 72;" xml:space="preserve">
<style type="text/css">
	.st0{fill:none;stroke:#FF9100;stroke-width:2;stroke-miterlimit:10;}
	.st1{fill:#FFFFFF;stroke:#FF9100;stroke-width:2;stroke-miterlimit:10;}
	.st2{fill:#FF9100;}
</style>
<g>
	<ellipse class="st0" cx="45.7" cy="45.4" rx="7.2" ry="6.5"/>
	<path class="st1" d="M39.5,62.4H22.3c-2.7-0.2-5-2.4-5-5.2V35h27.1v22.2C44.5,59.9,42.3,62.2,39.5,62.4z"/>
	<rect x="27.6" y="14" class="st0" width="8.5" height="20.4"/>
	<rect x="31" y="17.4" class="st2" width="5.1" height="1.2"/>
	<rect x="31" y="26" class="st2" width="5.1" height="1.2"/>
	<rect x="33.1" y="21.6" class="st2" width="2.9" height="1.3"/>
	<rect x="33.4" y="30.1" class="st2" width="2.6" height="1.6"/>
	<path class="st0" d="M44.6,14.4c0.3,0.5,0,1.8-0.1,2.4c-0.2,1.2-0.9,2.3-1.6,3.3c-0.4,0.5-0.7,1.1-0.9,1.7
		c-0.3,1.2,0.5,2.6,1.4,3.3c1.3,0.9,3.6,0.7,4.9-0.1c1.2-0.8,1.2-2.5,1.1-3.8c-0.2-1.8-0.7-3.7-1.9-5.1c-0.6-0.7-1.4-1.3-2.3-1.6
		C45.3,14.5,44.5,14.3,44.6,14.4z"/>
	<polygon class="st0" points="46,26.1 42.2,34.5 38,34.5 43.5,25.2 	"/>
	<polygon class="st0" points="15,22.5 16.1,28.2 19.1,35 25,35 19.8,25.6 	"/>
	<line class="st0" x1="16.2" y1="28" x2="19.6" y2="25.9"/>
</g>
</svg>
