<?xml version="1.0" encoding="utf-8"?>
<!-- Generator: Adobe Illustrator 20.1.0, SVG Export Plug-In . SVG Version: 6.00 Build 0)  -->
<svg version="1.1" id="Layer_1" xmlns="http://www.w3.org/2000/svg" xmlns:xlink="http://www.w3.org/1999/xlink" x="0px" y="0px"
	 viewBox="0 0 72 72" style="enable-background:new 0 0 72 72;" xml:space="preserve">
<style type="text/css">
	.st0{fill:#D14886;}
</style>
<g>
	<path class="st0" d="M23.9,60c-6.4,0-11.7-5.2-11.7-11.7s5.2-11.7,11.7-11.7s11.7,5.2,11.7,11.7S30.4,60,23.9,60z M23.9,38.6
		c-5.3,0-9.7,4.3-9.7,9.7s4.3,9.7,9.7,9.7s9.7-4.3,9.7-9.7S29.3,38.6,23.9,38.6z"/>
</g>
<g>
	<path class="st0" d="M18.6,48.4l-2-0.2c0.3-2.5,1.2-4.4,2.8-5.5c2.3-1.6,4.9-1.1,5.1-1.1l-0.4,2c0,0-2-0.4-3.5,0.8
		C19.5,45.1,18.8,46.5,18.6,48.4z"/>
</g>
<g>
	<path class="st0" d="M50.9,60c-6.4,0-11.7-5.2-11.7-11.7s5.2-11.7,11.7-11.7s11.7,5.2,11.7,11.7S57.4,60,50.9,60z M50.9,38.6
		c-5.3,0-9.7,4.3-9.7,9.7s4.3,9.7,9.7,9.7s9.7-4.3,9.7-9.7S56.3,38.6,50.9,38.6z"/>
</g>
<g>
	<path class="st0" d="M45.6,48.4l-2-0.2c0.3-2.5,1.2-4.4,2.8-5.5c2.3-1.6,5-1.1,5.1-1.1l-0.4,2c0,0-2-0.4-3.5,0.8
		C46.5,45.1,45.8,46.5,45.6,48.4z"/>
</g>
<g>
	<path class="st0" d="M44.9,32.6c-0.1-0.1-1.5-3.1-7.7-3.1c-6.1,0-7,2.8-7.1,2.9l-1.9-0.5c0-0.2,1.3-4.3,9-4.3
		c7.6,0,9.5,4.1,9.5,4.3L44.9,32.6l0.9-0.4L44.9,32.6z"/>
</g>
<g>
	<path class="st0" d="M15.2,44.1l-1.7-1c1.7-3,6.3-11.1,6.8-13.3c0.5-2.3,2.6-4.8,4-6.5c0.4-0.5,0.9-1,1-1.2
		c0.1-0.1,0.2-0.7,0.2-1.1c0.2-1.4,0.5-3.5,2.2-5.5c1.6-1.7,3.8-2,6.1-0.8c0.7,0.4,1.2,1.1,1.2,2V24h-2v-7.3c0-0.1,0-0.2-0.1-0.2
		c-1-0.5-2.5-0.9-3.7,0.3c-1.4,1.5-1.6,3.1-1.7,4.4c-0.1,0.7-0.2,1.3-0.5,1.8c-0.2,0.4-0.6,0.8-1.2,1.5c-1.2,1.4-3.2,3.8-3.6,5.6
		C21.6,33.2,15.9,43,15.2,44.1z"/>
</g>
<g>
	<path class="st0" d="M59.7,44.2c-0.6-1.1-6.3-11-7-13.9c-0.4-1.8-2.4-4.2-3.6-5.6c-0.6-0.7-1-1.2-1.2-1.5c-0.3-0.5-0.4-1.1-0.5-1.8
		c-0.2-1.3-0.4-2.9-1.7-4.4C44.5,15.7,43,16,42,16.6c-0.1,0-0.1,0.1-0.1,0.2v7.3h-2v-7.3c0-0.8,0.4-1.6,1.2-2c2.3-1.2,4.5-1,6.1,0.8
		c1.8,2,2.1,4.1,2.2,5.5c0.1,0.4,0.1,0.9,0.2,1.1c0.1,0.2,0.6,0.7,1,1.2c1.4,1.7,3.5,4.2,4,6.5c0.5,2.2,5.1,10.4,6.8,13.3L59.7,44.2
		z"/>
</g>
<g>
	<rect x="33.4" y="29" class="st0" width="2" height="17"/>
</g>
<g>
	<rect x="39.5" y="29" class="st0" width="2" height="17"/>
</g>
</svg>
